<?xml version="1.0" encoding="UTF-8" standalone="no"?>
<svg
   version="1.0"
   width="543.5pt"
   height="329.99997pt"
   viewBox="0 0 543.5 329.99997"
   preserveAspectRatio="xMidYMid"
   id="svg3"
   sodipodi:docname="htmx.svg"
   xmlns:inkscape="http://www.inkscape.org/namespaces/inkscape"
   xmlns:sodipodi="http://sodipodi.sourceforge.net/DTD/sodipodi-0.dtd"
   xmlns="http://www.w3.org/2000/svg"
   xmlns:svg="http://www.w3.org/2000/svg">
  <defs
     id="defs3" />
  <sodipodi:namedview
     id="namedview3"
     pagecolor="#ffffff"
     bordercolor="#000000"
     borderopacity="0.25"
     inkscape:showpageshadow="2"
     inkscape:pageopacity="0.0"
     inkscape:pagecheckerboard="0"
     inkscape:deskcolor="#d1d1d1"
     inkscape:document-units="pt" />
  <g
     transform="matrix(0.1,0,0,-0.1,-34,347)"
     fill="#000000"
     stroke="none"
     id="g3">
    <path
       d="M 2786,1833 C 2506,932 2275,189 2273,183 c -4,-10 49,-13 240,-13 h 245 l 11,33 c 6,17 180,576 386,1242 207,666 432,1390 501,1609 68,220 124,403 124,408 0,4 -109,8 -243,8 h -242 z"
       id="path1"
       style="fill:#3366cc;fill-opacity:1" />
    <path
       d="M 1550,2604 C 1283,2497 902,2344 703,2263 L 340,2118 v -223 -223 l 128,-51 c 141,-58 1533,-618 1557,-627 14,-6 15,22 13,237 l -3,243 -470,178 c -259,97 -498,187 -532,200 -50,17 -63,26 -63,43 0,13 10,24 28,31 15,6 252,95 527,199 275,104 503,191 508,195 4,3 6,113 5,242 l -3,237 z"
       id="path2"
       style="fill:#ffffff" />
    <path
       d="m 4080,2562 v -240 l 78,-30 c 42,-16 283,-107 535,-202 409,-155 457,-176 457,-195 0,-20 -54,-42 -532,-222 l -533,-200 -3,-242 c -2,-228 -1,-242 15,-237 10,3 392,156 848,340 l 830,335 v 226 227 l -835,335 c -459,184 -841,337 -847,340 -10,4 -13,-47 -13,-235 z"
       id="path3"
       style="fill:#ffffff" />
  </g>
</svg>
