<?xml version="1.0" standalone="no"?>
<svg version="1.0" xmlns="http://www.w3.org/2000/svg"
     width="1920.000000pt" height="1080.000000pt" viewBox="0 0 1920.000000 1080.000000"
     preserveAspectRatio="xMidYMid meet">

    <g transform="translate(0.000000,1080.000000) scale(0.100000,-0.100000)"
       stroke="none">

        <path fill="#ffffff" d="M8090 5994 c-267 -107 -648 -260 -847 -341 l-363 -145 0 -223 0 -223
128 -51 c141 -58 1533 -618 1557 -627 14 -6 15 22 13 237 l-3 243 -470 178
c-258 97 -498 187 -532 200 -50 17 -63 26 -63 43 0 13 10 24 28 31 15 6 252
95 527 199 275 104 503 191 508 195 4 3 6 113 5 242 l-3 237 -485 -195z"/>
        <path fill="#3366cc" d="M9326 5223 c-280 -901 -511 -1644 -513 -1650 -4 -10 49 -13 240 -13
l245 0 11 33 c6 17 180 577 386 1242 207 666 432 1390 501 1609 68 220 124
403 124 408 0 4 -109 8 -243 8 l-242 0 -509 -1637z"/>
        <path fill="#ffffff" d="M10620 5952 l0 -240 78 -30 c42 -16 283 -107 535 -202 409 -155 457
-176 457 -195 0 -20 -54 -42 -532 -222 l-533 -200 -3 -242 c-2 -228 -1 -242
15 -237 10 3 392 156 848 340 l830 335 0 226 0 227 -835 335 c-459 184 -841
337 -847 340 -10 4 -13 -47 -13 -235z"/>
    </g>
</svg>
